<svg xmlns="http://www.w3.org/2000/svg" viewBox="0 0 100 100">
  <defs>
    <linearGradient id="grad1" x1="0%" y1="0%" x2="100%" y2="100%">
      <stop offset="0%" style="stop-color:#4f46e5;stop-opacity:1" />
      <stop offset="50%" style="stop-color:#7c3aed;stop-opacity:1" />
      <stop offset="100%" style="stop-color:#ec4899;stop-opacity:1" />
    </linearGradient>
  </defs>
  
  <!-- Background Circle -->
  <circle cx="50" cy="50" r="48" fill="url(#grad1)"/>
  
  <!-- Chart/Graph Icon -->
  <path d="M30 70 L30 55 L40 45 L50 50 L60 35 L70 40 L70 70 Z" fill="white" opacity="0.3"/>
  <polyline points="30,55 40,45 50,50 60,35 70,40" stroke="white" stroke-width="3" fill="none" stroke-linecap="round" stroke-linejoin="round"/>
  
  <!-- Upward Arrow -->
  <path d="M65 25 L75 35 L70 35 L70 45 L60 45 L60 35 L55 35 Z" fill="white"/>
  
  <!-- Data Points -->
  <circle cx="30" cy="55" r="3" fill="white"/>
  <circle cx="40" cy="45" r="3" fill="white"/>
  <circle cx="50" cy="50" r="3" fill="white"/>
  <circle cx="60" cy="35" r="3" fill="white"/>
  <circle cx="70" cy="40" r="3" fill="white"/>
</svg>
